<?xml version="1.0" encoding="UTF-8"?>
<svg id="Layer_2" data-name="Layer 2" xmlns="http://www.w3.org/2000/svg" viewBox="0 0 224.35 82.04">
  <defs>
    <style>
      .cls-1 {
        fill: #231f20;
      }

      .cls-2 {
        fill: #ce2a2b;
      }

      .cls-2, .cls-3, .cls-4 {
        fill-rule: evenodd;
      }

      .cls-3 {
        fill: #8aa83e;
      }

      .cls-4 {
        fill: #00588f;
      }

      .cls-5 {
        fill: #e4282b;
      }

      .cls-6 {
        fill: #fff;
        opacity: .7;
      }
    </style>
  </defs>
  <g id="Layer_1-2" data-name="Layer 1">
    <g>
      <rect class="cls-6" width="224.35" height="82.04" rx="14.61" ry="14.61"/>
      <g>
        <path class="cls-4" d="M28.26,31.08h16.64l-16.59,24.94c-.92,1.18-2.71,2.15-4,2.15H7.75l16.53-24.95c.9-1.16,2.7-2.13,3.98-2.13Z"/>
        <path class="cls-3" d="M53.81,31.08h16.66l-8.71,13.61c-.95,1.21-2.8,2.23-4.14,2.23h-16.58l8.62-13.62c.95-1.19,2.8-2.21,4.15-2.21Z"/>
        <path class="cls-2" d="M53.81,27.02h16.66l-8.71-13.62c-.95-1.21-2.8-2.21-4.14-2.21h-16.58l8.62,13.62c.95,1.21,2.8,2.21,4.15,2.21Z"/>
        <path class="cls-1" d="M86.65,38.7h2.69c.75,0,1.27-.07,1.56-.2s.53-.34.7-.65c.17-.29.25-.67.25-1.1,0-.75-.23-1.29-.72-1.62-.35-.26-.98-.38-1.93-.38h-2.58v3.95h.02ZM82.82,31.16h3.48c1.88,0,5.66.2,6.51.59.83.39,1.5,1.02,1.98,1.88.48.87.71,1.91.71,3.13,0,1.34-.32,2.46-.95,3.36-.63.9-1.48,1.51-2.56,1.87-.63.2-3.68.29-5.36.29v5.4h-3.81v-16.52Z"/>
        <polygon class="cls-1" points="98.05 31.16 108.41 31.16 108.41 34.75 101.33 34.75 101.33 37.7 108.41 37.7 108.41 41.12 101.33 41.12 101.33 44.49 108.41 44.49 108.41 47.55 98.05 47.55 98.05 31.16"/>
        <path class="cls-1" d="M115.63,38.79h2.26c.98,0,1.66-.16,2.03-.51.37-.34.55-.9.55-1.7,0-.48-.08-.88-.27-1.23-.18-.34-.43-.59-.75-.75-.3-.15-.88-.23-1.7-.23h-2.15v4.42h.02ZM112.14,31.16h5.18c2.02,0,3.46.18,4.31.54.87.36,1.55.79,2.08,1.62.53.82.78,1.8.78,2.95s-.28,2.19-.87,3c-.58.8-1.45,1.41-2.61,1.82l5.16,6.62h-4.63l-4.79-6.22h-1.11v6.22h-3.5v-16.54Z"/>
        <polygon class="cls-1" points="126.07 31.16 139.17 31.16 139.17 34.85 134.31 34.85 134.31 47.55 130.98 47.55 130.98 34.85 126.07 34.85 126.07 31.16"/>
        <path class="cls-1" d="M145.83,35.52l-1.82,6.22h3.62l-1.8-6.22ZM143.5,31.16h4.44l5.79,16.39h-4.11l-1-2.7h-5.62l-1.02,2.7h-4.19l5.7-16.39Z"/>
        <path class="cls-1" d="M208.69,35.52l-1.82,6.22h3.62l-1.8-6.22ZM206.36,31.16h4.44l5.79,16.39h-4.08l-1-2.7h-5.64l-1,2.7h-4.22l5.7-16.39Z"/>
        <rect class="cls-1" x="176.38" y="31.16" width="3.86" height="16.39"/>
        <polygon class="cls-1" points="183.77 31.16 187.19 31.16 195.18 41.95 195.18 31.16 198.73 31.16 198.73 47.55 195.31 47.55 187.32 36.8 187.32 47.55 183.77 47.55 183.77 31.16"/>
        <polygon class="cls-1" points="171.58 31.16 167.68 31.16 164.48 40.41 161.15 31.16 157.33 31.16 155.22 47.55 158.75 47.55 160 38.35 163.57 47.55 165.28 47.55 168.59 38.42 169.76 47.55 173.69 47.55 171.58 31.16"/>
        <path class="cls-5" d="M90.96,61.86c-.38-.56-.85-.98-1.42-1.28-.55-.29-1.18-.43-1.88-.43-1.17,0-2.11.36-2.85,1.11-.73.74-1.1,1.7-1.1,2.9,0,.52.1,1.03.28,1.49.2.48.48.88.85,1.24.38.36.8.64,1.27.82.47.18.98.26,1.53.26,1.05,0,1.91-.29,2.56-.88.67-.59,1.02-1.36,1.03-2.31h-3.25v-.71h4.18v.1c0,1.41-.4,2.52-1.23,3.33-.81.8-1.95,1.19-3.38,1.19s-2.58-.43-3.46-1.29c-.88-.85-1.31-1.98-1.31-3.37,0-.64.12-1.24.33-1.82.22-.57.55-1.06.97-1.49.45-.46.97-.8,1.53-1.03.57-.23,1.21-.34,1.91-.34.95,0,1.76.16,2.45.49.68.33,1.2.8,1.56,1.44l-.58.57Z"/>
        <polygon class="cls-5" points="93.83 68.51 93.83 59.64 98.49 59.64 98.49 60.39 94.69 60.39 94.69 63.17 98.49 63.17 98.49 63.93 94.69 63.93 94.69 67.76 98.49 67.76 98.49 68.51 93.83 68.51"/>
        <path class="cls-5" d="M105.06,68.04c.55,0,1.08-.1,1.58-.29.5-.2.95-.48,1.35-.85.38-.38.68-.8.9-1.28.2-.48.32-.98.32-1.51s-.1-1.03-.3-1.52c-.2-.47-.51-.9-.9-1.28-.38-.38-.83-.65-1.33-.85-.5-.2-1.03-.29-1.6-.29s-1.08.1-1.56.29c-.5.2-.95.47-1.33.85-.4.38-.7.8-.9,1.28-.2.48-.3.98-.3,1.52s.1,1.03.3,1.51c.22.47.5.9.9,1.28.38.38.83.65,1.33.85.43.2.97.29,1.55.29ZM110.09,64.09c0,.62-.13,1.23-.38,1.79-.25.56-.61,1.06-1.1,1.51-.48.44-1.03.79-1.63,1.02-.6.23-1.25.34-1.93.34s-1.31-.11-1.93-.34c-.6-.23-1.15-.57-1.63-1.02-.48-.44-.85-.95-1.1-1.52-.25-.56-.37-1.15-.37-1.78s.12-1.24.37-1.8c.25-.56.62-1.06,1.1-1.52.48-.44,1.02-.77,1.62-1,.6-.23,1.25-.34,1.95-.34s1.35.11,1.95.34c.61.23,1.15.56,1.61,1,.48.44.85.95,1.1,1.52.27.59.38,1.19.38,1.82Z"/>
        <polygon class="cls-5" points="113.17 68.51 113.17 60.39 110.59 60.39 110.59 59.64 116.61 59.64 116.61 60.39 114.02 60.39 114.02 68.51 113.17 68.51"/>
        <polygon class="cls-5" points="117.55 68.51 117.55 59.64 118.4 59.64 118.4 63.24 123.51 63.24 123.51 59.64 124.35 59.64 124.35 68.51 123.51 68.51 123.51 63.93 118.4 63.93 118.4 68.51 117.55 68.51"/>
        <polygon class="cls-5" points="126.53 68.51 126.53 59.64 131.18 59.64 131.18 60.39 127.38 60.39 127.38 63.17 131.18 63.17 131.18 63.93 127.38 63.93 127.38 67.76 131.18 67.76 131.18 68.51 126.53 68.51"/>
        <path class="cls-5" d="M134.37,60.34v3.27h.85c.8,0,1.35-.12,1.68-.36.3-.25.47-.65.47-1.23,0-.6-.17-1.05-.48-1.31-.33-.26-.88-.39-1.66-.39h-.85v.02ZM139.24,68.51h-1.03l-3.31-4.24h-.51v4.24h-.85v-8.87h1.73c1.02,0,1.78.2,2.3.6.5.39.77,1,.77,1.82,0,.69-.22,1.23-.65,1.64-.43.39-1.03.59-1.8.59l3.36,4.22Z"/>
        <polygon class="cls-5" points="144.68 68.86 141.37 61.73 140.66 68.51 139.78 68.51 141.06 59.26 144.66 67.17 148.41 59.26 149.61 68.51 148.72 68.51 148.03 61.73 144.68 68.86"/>
        <path class="cls-5" d="M153.23,64.81h3.4l-1.66-3.86-1.73,3.86ZM150.7,68.51l4.33-9.23,4.13,9.23h-.98l-1.24-3.01h-4l-1.31,3.01h-.93Z"/>
        <polygon class="cls-5" points="160.22 68.51 160.22 59.64 161.04 59.64 161.04 67.76 164.08 67.76 164.08 68.51 160.22 68.51"/>
        <polygon class="cls-5" points="169.03 68.53 169.03 59.69 173.71 59.69 173.71 60.44 169.9 60.44 169.9 63.21 173.71 63.21 173.71 63.96 169.9 63.96 169.9 67.77 173.71 67.77 173.71 68.53 169.03 68.53"/>
        <polygon class="cls-5" points="175.84 68.53 175.84 59.31 183.24 66.71 183.24 59.69 184.12 59.69 184.12 68.79 176.71 61.37 176.71 68.53 175.84 68.53"/>
        <polygon class="cls-5" points="186.34 68.53 186.34 59.69 191.03 59.69 191.03 60.44 187.21 60.44 187.21 63.21 191.03 63.21 191.03 63.96 187.21 63.96 187.21 67.77 191.03 67.77 191.03 68.53 186.34 68.53"/>
        <path class="cls-5" d="M193.96,60.37v3.26h.87c.8,0,1.35-.11,1.69-.36.31-.24.47-.65.47-1.23,0-.61-.16-1.03-.49-1.29-.33-.26-.89-.38-1.66-.38h-.87ZM198.84,68.53h-1.04l-3.31-4.22h-.53v4.22h-.84v-8.84h1.73c1.04,0,1.78.2,2.31.59.51.39.75,1,.75,1.82,0,.69-.22,1.23-.64,1.62-.44.39-1.04.59-1.8.59l3.37,4.22Z"/>
        <path class="cls-5" d="M207.52,61.9c-.38-.56-.84-.98-1.42-1.26-.55-.28-1.18-.43-1.89-.43-1.15,0-2.11.38-2.84,1.11-.73.74-1.09,1.7-1.09,2.88,0,.52.09,1.03.29,1.49.2.48.49.88.84,1.24.4.36.8.62,1.27.8.47.18,1,.26,1.55.26,1.07,0,1.91-.29,2.57-.87.67-.59,1-1.34,1.02-2.29h-3.24v-.69h4.2v.1c0,1.41-.4,2.51-1.24,3.31-.8.8-1.93,1.2-3.4,1.2s-2.57-.43-3.46-1.28c-.87-.85-1.33-1.96-1.33-3.36,0-.64.13-1.24.33-1.8.22-.57.55-1.06.98-1.47.44-.46.95-.8,1.55-1.02.58-.23,1.2-.34,1.91-.34.95,0,1.78.16,2.46.49.69.33,1.22.8,1.58,1.42l-.64.49Z"/>
        <polygon class="cls-5" points="212.65 68.53 212.65 64.45 209.52 59.69 210.54 59.69 213.07 63.73 215.62 59.69 216.6 59.69 213.51 64.45 213.51 68.53 212.65 68.53"/>
      </g>
    </g>
  </g>
</svg>